<svg width="57" height="57" viewBox="0 0 57 57" fill="none" xmlns="http://www.w3.org/2000/svg">
<path d="M31.0185 5.34371C30.3504 4.67585 29.4445 4.30066 28.4998 4.30066C27.5552 4.30066 26.6492 4.67585 25.9811 5.34371L2.30118 29.0201C2.13557 29.1857 2.0042 29.3823 1.91457 29.5987C1.82494 29.8151 1.77881 30.047 1.77881 30.2812C1.77881 30.5154 1.82494 30.7473 1.91457 30.9637C2.0042 31.1801 2.13557 31.3767 2.30118 31.5423C2.63565 31.8768 3.08929 32.0647 3.56231 32.0647C3.79652 32.0647 4.02844 32.0186 4.24482 31.929C4.46121 31.8393 4.65782 31.708 4.82343 31.5423L28.4998 7.8624L52.1762 31.5423C52.5107 31.8768 52.9643 32.0647 53.4373 32.0647C53.9103 32.0647 54.364 31.8768 54.6984 31.5423C55.0329 31.2079 55.2208 30.7542 55.2208 30.2812C55.2208 29.8082 55.0329 29.3546 54.6984 29.0201L46.3123 20.6375V8.90621C46.3123 8.43379 46.1246 7.98073 45.7906 7.64668C45.4565 7.31263 45.0035 7.12496 44.5311 7.12496H40.9686C40.4961 7.12496 40.0431 7.31263 39.709 7.64668C39.375 7.98073 39.1873 8.43379 39.1873 8.90621V13.5125L31.0185 5.34371Z" fill="#AEB9FF"/>
<path d="M28.5 11.7313L49.875 33.1063V48.0938C49.875 49.511 49.312 50.8702 48.3099 51.8724C47.3077 52.8745 45.9485 53.4375 44.5312 53.4375H12.4688C11.0515 53.4375 9.6923 52.8745 8.69015 51.8724C7.688 50.8702 7.125 49.511 7.125 48.0938V33.1063L28.5 11.7313Z" fill="#AEB9FF"/>
</svg>
