<svg width="56" height="56" viewBox="0 0 56 56" fill="none" xmlns="http://www.w3.org/2000/svg">
<path d="M39.6667 25.6667V11.6667C39.6667 9.1 37.5667 7 35 7H21C18.4333 7 16.3333 9.1 16.3333 11.6667V16.3333H11.6667C9.1 16.3333 7 18.4333 7 21V44.3333C7 46.9 9.1 49 11.6667 49H23.3333C24.6167 49 25.6667 47.95 25.6667 46.6667V39.6667H30.3333V46.6667C30.3333 47.95 31.3833 49 32.6667 49H44.3333C46.9 49 49 46.9 49 44.3333V30.3333C49 27.7667 46.9 25.6667 44.3333 25.6667H39.6667ZM16.3333 44.3333H11.6667V39.6667H16.3333V44.3333ZM16.3333 35H11.6667V30.3333H16.3333V35ZM16.3333 25.6667H11.6667V21H16.3333V25.6667ZM25.6667 35H21V30.3333H25.6667V35ZM25.6667 25.6667H21V21H25.6667V25.6667ZM25.6667 16.3333H21V11.6667H25.6667V16.3333ZM35 35H30.3333V30.3333H35V35ZM35 25.6667H30.3333V21H35V25.6667ZM35 16.3333H30.3333V11.6667H35V16.3333ZM44.3333 44.3333H39.6667V39.6667H44.3333V44.3333ZM44.3333 35H39.6667V30.3333H44.3333V35Z" fill="#AEB9FF"/>
</svg>
