<svg width="42" height="42" viewBox="0 0 42 42" fill="none" xmlns="http://www.w3.org/2000/svg">
<path d="M29.571 19.5221V9.16409C29.571 7.26512 28.0173 5.71143 26.1183 5.71143H15.7603C13.8614 5.71143 12.3077 7.26512 12.3077 9.16409V12.6168H8.85501C6.95604 12.6168 5.40234 14.1704 5.40234 16.0694V33.3327C5.40234 35.2317 6.95604 36.7854 8.85501 36.7854H17.4867C18.4361 36.7854 19.213 36.0085 19.213 35.0591V29.8801H22.6657V35.0591C22.6657 36.0085 23.4425 36.7854 24.392 36.7854H33.0236C34.9226 36.7854 36.4763 35.2317 36.4763 33.3327V22.9747C36.4763 21.0758 34.9226 19.5221 33.0236 19.5221H29.571ZM12.3077 33.3327H8.85501V29.8801H12.3077V33.3327ZM12.3077 26.4274H8.85501V22.9747H12.3077V26.4274ZM12.3077 19.5221H8.85501V16.0694H12.3077V19.5221ZM19.213 26.4274H15.7603V22.9747H19.213V26.4274ZM19.213 19.5221H15.7603V16.0694H19.213V19.5221ZM19.213 12.6168H15.7603V9.16409H19.213V12.6168ZM26.1183 26.4274H22.6657V22.9747H26.1183V26.4274ZM26.1183 19.5221H22.6657V16.0694H26.1183V19.5221ZM26.1183 12.6168H22.6657V9.16409H26.1183V12.6168ZM33.0236 33.3327H29.571V29.8801H33.0236V33.3327ZM33.0236 26.4274H29.571V22.9747H33.0236V26.4274Z" fill="#AEB9FF"/>
</svg>
