<svg width="66" height="62" viewBox="0 0 66 62" fill="none" xmlns="http://www.w3.org/2000/svg">
<g filter="url(#filter0_d_119_322)">
<path d="M35.2397 2.04305C34.5716 1.37519 33.6656 1 32.721 1C31.7764 1 30.8704 1.37519 30.2023 2.04305L6.52238 25.7194C6.35676 25.885 6.22539 26.0817 6.13576 26.298C6.04613 26.5144 6 26.7463 6 26.9806C6 27.2148 6.04613 27.4467 6.13576 27.6631C6.22539 27.8795 6.35676 28.0761 6.52238 28.2417C6.85685 28.5762 7.31049 28.7641 7.7835 28.7641C8.01771 28.7641 8.24963 28.7179 8.46602 28.6283C8.6824 28.5387 8.87901 28.4073 9.04462 28.2417L32.721 4.56174L56.3974 28.2417C56.7318 28.5762 57.1855 28.7641 57.6585 28.7641C58.1315 28.7641 58.5852 28.5762 58.9196 28.2417C59.2541 27.9072 59.442 27.4536 59.442 26.9806C59.442 26.5075 59.2541 26.0539 58.9196 25.7194L50.5335 17.3369V5.60555C50.5335 5.13314 50.3458 4.68007 50.0118 4.34602C49.6777 4.01197 49.2247 3.8243 48.7523 3.8243H45.1898C44.7173 3.8243 44.2643 4.01197 43.9302 4.34602C43.5962 4.68007 43.4085 5.13314 43.4085 5.60555V10.2119L35.2397 2.04305Z" fill="#7B6DE0"/>
<path d="M32.7209 8.43066L54.0959 29.8057V44.7931C54.0959 46.2104 53.5329 47.5696 52.5308 48.5717C51.5287 49.5738 50.1694 50.1368 48.7522 50.1368H16.6897C15.2724 50.1368 13.9132 49.5738 12.9111 48.5717C11.9089 47.5696 11.3459 46.2104 11.3459 44.7931V29.8057L32.7209 8.43066Z" fill="#7B6DE0"/>
</g>
<path d="M31.6719 43V23H32.9531V43H31.6719ZM35.0703 29.6016C35.0078 28.9714 34.7396 28.4818 34.2656 28.1328C33.7917 27.7839 33.1484 27.6094 32.3359 27.6094C31.7839 27.6094 31.3177 27.6875 30.9375 27.8437C30.5573 27.9948 30.2656 28.2057 30.0625 28.4766C29.8646 28.7474 29.7656 29.0547 29.7656 29.3984C29.7552 29.6849 29.8151 29.9349 29.9453 30.1484C30.0807 30.362 30.2656 30.5469 30.5 30.7031C30.7344 30.8542 31.0052 30.987 31.3125 31.1016C31.6198 31.2109 31.9479 31.3047 32.2969 31.3828L33.7344 31.7266C34.4323 31.8828 35.0729 32.0911 35.6562 32.3516C36.2396 32.612 36.7448 32.9323 37.1719 33.3125C37.599 33.6927 37.9297 34.1406 38.1641 34.6562C38.4036 35.1719 38.526 35.763 38.5312 36.4297C38.526 37.4089 38.276 38.2578 37.7813 38.9766C37.2917 39.6901 36.5833 40.2448 35.6562 40.6406C34.7344 41.0312 33.6224 41.2266 32.3203 41.2266C31.0286 41.2266 29.9036 41.0286 28.9453 40.6328C27.9922 40.237 27.2474 39.651 26.7109 38.875C26.1797 38.0937 25.901 37.1276 25.875 35.9766H29.1484C29.1849 36.513 29.3385 36.9609 29.6094 37.3203C29.8854 37.6745 30.2526 37.9427 30.7109 38.125C31.1745 38.3021 31.6979 38.3906 32.2812 38.3906C32.8542 38.3906 33.3516 38.3073 33.7734 38.1406C34.2005 37.974 34.5313 37.7422 34.7656 37.4453C35 37.1484 35.1172 36.8073 35.1172 36.4219C35.1172 36.0625 35.0104 35.7604 34.7969 35.5156C34.5885 35.2708 34.2813 35.0625 33.875 34.8906C33.474 34.7187 32.9818 34.5625 32.3984 34.4219L30.6563 33.9844C29.3073 33.6562 28.2422 33.1432 27.4609 32.4453C26.6797 31.7474 26.2917 30.8073 26.2969 29.625C26.2917 28.6562 26.5495 27.8099 27.0703 27.0859C27.5964 26.362 28.3177 25.7969 29.2344 25.3906C30.151 24.9844 31.1927 24.7812 32.3594 24.7812C33.5469 24.7812 34.5833 24.9844 35.4688 25.3906C36.3594 25.7969 37.0521 26.362 37.5469 27.0859C38.0417 27.8099 38.2969 28.6484 38.3125 29.6016H35.0703Z" fill="white"/>
<defs>
<filter id="filter0_d_119_322" x="0" y="0" width="65.4419" height="61.1368" filterUnits="userSpaceOnUse" color-interpolation-filters="sRGB">
<feFlood flood-opacity="0" result="BackgroundImageFix"/>
<feColorMatrix in="SourceAlpha" type="matrix" values="0 0 0 0 0 0 0 0 0 0 0 0 0 0 0 0 0 0 127 0" result="hardAlpha"/>
<feOffset dy="5"/>
<feGaussianBlur stdDeviation="3"/>
<feComposite in2="hardAlpha" operator="out"/>
<feColorMatrix type="matrix" values="0 0 0 0 0 0 0 0 0 0 0 0 0 0 0 0 0 0 0.13 0"/>
<feBlend mode="normal" in2="BackgroundImageFix" result="effect1_dropShadow_119_322"/>
<feBlend mode="normal" in="SourceGraphic" in2="effect1_dropShadow_119_322" result="shape"/>
</filter>
</defs>
</svg>
