<svg width="65" height="43" viewBox="0 0 65 43" fill="none" xmlns="http://www.w3.org/2000/svg">
<path d="M44.827 4.51109C44.3327 4.01696 43.6625 3.73938 42.9635 3.73938C42.2646 3.73938 41.5944 4.01696 41.1001 4.51109L23.5803 22.0282C23.4578 22.1507 23.3606 22.2962 23.2943 22.4563C23.228 22.6164 23.1938 22.788 23.1938 22.9613C23.1938 23.1345 23.228 23.3061 23.2943 23.4662C23.3606 23.6263 23.4578 23.7718 23.5803 23.8943C23.8278 24.1418 24.1634 24.2808 24.5134 24.2808C24.6867 24.2808 24.8583 24.2467 25.0183 24.1803C25.1784 24.114 25.3239 24.0168 25.4464 23.8943L42.9635 6.37456L60.4807 23.8943C60.7281 24.1418 61.0637 24.2808 61.4137 24.2808C61.7637 24.2808 62.0993 24.1418 62.3468 23.8943C62.5942 23.6468 62.7332 23.3112 62.7332 22.9613C62.7332 22.6113 62.5942 22.2757 62.3468 22.0282L56.1422 15.8263V7.14683C56.1422 6.79731 56.0034 6.4621 55.7562 6.21495C55.5091 5.9678 55.1739 5.82896 54.8244 5.82896H52.1886C51.8391 5.82896 51.5039 5.9678 51.2568 6.21495C51.0096 6.4621 50.8708 6.79731 50.8708 7.14683V10.5548L44.827 4.51109Z" fill="#7B68F0"/>
<path d="M42.9638 9.23694L58.7783 25.0514V36.1399C58.7783 37.1885 58.3617 38.1941 57.6203 38.9355C56.8788 39.677 55.8732 40.0935 54.8247 40.0935H31.103C30.0545 40.0935 29.0488 39.677 28.3074 38.9355C27.566 38.1941 27.1494 37.1885 27.1494 36.1399V25.0514L42.9638 9.23694V9.23694Z" fill="#7B68F0"/>
<path d="M19.6544 4.51109C20.1487 4.01696 20.819 3.73938 21.5179 3.73938C22.2168 3.73938 22.8871 4.01696 23.3814 4.51109L40.9011 22.0282C41.0236 22.1507 41.1208 22.2962 41.1872 22.4563C41.2535 22.6164 41.2876 22.788 41.2876 22.9613C41.2876 23.1345 41.2535 23.3061 41.1872 23.4662C41.1208 23.6263 41.0236 23.7718 40.9011 23.8943C40.6537 24.1418 40.318 24.2808 39.9681 24.2808C39.7948 24.2808 39.6232 24.2467 39.4631 24.1803C39.303 24.114 39.1575 24.0168 39.035 23.8943L21.5179 6.37456L4.00079 23.8943C3.75333 24.1418 3.4177 24.2808 3.06773 24.2808C2.71777 24.2808 2.38214 24.1418 2.13468 23.8943C1.88722 23.6468 1.7482 23.3112 1.7482 22.9613C1.7482 22.6113 1.88722 22.2757 2.13468 22.0282L8.33921 15.8263V7.14683C8.33921 6.79731 8.47806 6.4621 8.7252 6.21495C8.97235 5.9678 9.30756 5.82896 9.65708 5.82896H12.2928C12.6423 5.82896 12.9775 5.9678 13.2247 6.21495C13.4718 6.4621 13.6107 6.79731 13.6107 7.14683V10.5548L19.6544 4.51109Z" fill="#AEB9FF"/>
<path d="M21.5176 9.23694L5.70317 25.0514V36.1399C5.70317 37.1885 6.11971 38.1941 6.86116 38.9355C7.6026 39.677 8.60822 40.0935 9.65678 40.0935H33.3784C34.427 40.0935 35.4326 39.677 36.174 38.9355C36.9155 38.1941 37.332 37.1885 37.332 36.1399V25.0514L21.5176 9.23694V9.23694Z" fill="#AEB9FF"/>
</svg>
