<svg width="29" height="29" viewBox="0 0 29 29" fill="none" xmlns="http://www.w3.org/2000/svg">
<path d="M28.3513 14.1757C28.3513 17.9353 26.8578 21.5409 24.1994 24.1994C21.5409 26.8578 17.9353 28.3513 14.1757 28.3513C10.416 28.3513 6.81041 26.8578 4.15196 24.1994C1.4935 21.5409 0 17.9353 0 14.1757C0 10.416 1.4935 6.81041 4.15196 4.15196C6.81041 1.4935 10.416 0 14.1757 0C17.9353 0 21.5409 1.4935 24.1994 4.15196C26.8578 6.81041 28.3513 10.416 28.3513 14.1757V14.1757ZM9.48707 8.23252C9.3207 8.06616 9.09507 7.9727 8.85979 7.9727C8.62452 7.9727 8.39888 8.06616 8.23252 8.23252C8.06616 8.39888 7.9727 8.62452 7.9727 8.85979C7.9727 9.09507 8.06616 9.3207 8.23252 9.48707L12.9229 14.1757L8.23252 18.8643C8.15015 18.9466 8.0848 19.0444 8.04022 19.1521C7.99564 19.2597 7.9727 19.3751 7.9727 19.4915C7.9727 19.608 7.99564 19.7234 8.04022 19.831C8.0848 19.9387 8.15015 20.0364 8.23252 20.1188C8.39888 20.2852 8.62452 20.3786 8.85979 20.3786C8.97629 20.3786 9.09164 20.3557 9.19927 20.3111C9.3069 20.2665 9.40469 20.2012 9.48707 20.1188L14.1757 15.4284L18.8643 20.1188C18.9466 20.2012 19.0444 20.2665 19.1521 20.3111C19.2597 20.3557 19.3751 20.3786 19.4915 20.3786C19.608 20.3786 19.7234 20.3557 19.831 20.3111C19.9387 20.2665 20.0364 20.2012 20.1188 20.1188C20.2012 20.0364 20.2665 19.9387 20.3111 19.831C20.3557 19.7234 20.3786 19.608 20.3786 19.4915C20.3786 19.3751 20.3557 19.2597 20.3111 19.1521C20.2665 19.0444 20.2012 18.9466 20.1188 18.8643L15.4284 14.1757L20.1188 9.48707C20.2012 9.40469 20.2665 9.3069 20.3111 9.19927C20.3557 9.09164 20.3786 8.97629 20.3786 8.85979C20.3786 8.7433 20.3557 8.62794 20.3111 8.52032C20.2665 8.41269 20.2012 8.3149 20.1188 8.23252C20.0364 8.15015 19.9387 8.0848 19.831 8.04022C19.7234 7.99564 19.608 7.9727 19.4915 7.9727C19.3751 7.9727 19.2597 7.99564 19.1521 8.04022C19.0444 8.0848 18.9466 8.15015 18.8643 8.23252L14.1757 12.9229L9.48707 8.23252Z" fill="#7E6DE7"/>
</svg>
