<svg width="28" height="21" viewBox="0 0 28 21" fill="none" xmlns="http://www.w3.org/2000/svg">
<path d="M27.3438 16.3955C27.3438 16.8306 27.1709 17.2479 26.8632 17.5556C26.5555 17.8633 26.1382 18.0361 25.7031 18.0361H23.2012C22.8708 18.8417 22.3084 19.5308 21.5853 20.0158C20.8623 20.5008 20.0113 20.7597 19.1406 20.7597C18.27 20.7597 17.419 20.5008 16.6959 20.0158C15.9729 19.5308 15.4104 18.8417 15.0801 18.0361H1.64062C1.2055 18.0361 0.788205 17.8633 0.480528 17.5556C0.172851 17.2479 0 16.8306 0 16.3955C0 15.9604 0.172851 15.5431 0.480528 15.2354C0.788205 14.9277 1.2055 14.7549 1.64062 14.7549H15.0801C15.4104 13.9493 15.9729 13.2602 16.6959 12.7752C17.419 12.2902 18.27 12.0313 19.1406 12.0313C20.0113 12.0313 20.8623 12.2902 21.5853 12.7752C22.3084 13.2602 22.8708 13.9493 23.2012 14.7549H25.7031C26.1382 14.7549 26.5555 14.9277 26.8632 15.2354C27.1709 15.5431 27.3438 15.9604 27.3438 16.3955ZM1.64062 6.00487H6.33008C6.6604 6.81043 7.22287 7.49953 7.94593 7.98453C8.66899 8.46952 9.51997 8.72849 10.3906 8.72849C11.2613 8.72849 12.1123 8.46952 12.8353 7.98453C13.5584 7.49953 14.1208 6.81043 14.4512 6.00487H25.7031C26.1382 6.00487 26.5555 5.83202 26.8632 5.52434C27.1709 5.21667 27.3438 4.79937 27.3438 4.36424C27.3438 3.92912 27.1709 3.51182 26.8632 3.20415C26.5555 2.89647 26.1382 2.72362 25.7031 2.72362H14.4512C14.1208 1.91806 13.5584 1.22896 12.8353 0.743963C12.1123 0.258968 11.2613 0 10.3906 0C9.51997 0 8.66899 0.258968 7.94593 0.743963C7.22287 1.22896 6.6604 1.91806 6.33008 2.72362H1.64062C1.2055 2.72362 0.788205 2.89647 0.480528 3.20415C0.172851 3.51182 0 3.92912 0 4.36424C0 4.79937 0.172851 5.21667 0.480528 5.52434C0.788205 5.83202 1.2055 6.00487 1.64062 6.00487Z" fill="#7E6DE7"/>
</svg>
