<svg width="46" height="36" viewBox="0 0 46 36" fill="none" xmlns="http://www.w3.org/2000/svg">
<path d="M45.6562 27.9687C45.6562 28.6898 45.3698 29.3813 44.8599 29.8912C44.3501 30.4011 43.6586 30.6875 42.9375 30.6875H38.7914C38.244 32.0224 37.3119 33.1644 36.1137 33.9681C34.9155 34.7718 33.5053 35.2009 32.0625 35.2009C30.6197 35.2009 29.2095 34.7718 28.0113 33.9681C26.8131 33.1644 25.881 32.0224 25.3336 30.6875H3.0625C2.34144 30.6875 1.64992 30.4011 1.14005 29.8912C0.630189 29.3813 0.34375 28.6898 0.34375 27.9687C0.34375 27.2477 0.630189 26.5562 1.14005 26.0463C1.64992 25.5364 2.34144 25.25 3.0625 25.25H25.3336C25.881 23.9151 26.8131 22.7731 28.0113 21.9694C29.2095 21.1657 30.6197 20.7366 32.0625 20.7366C33.5053 20.7366 34.9155 21.1657 36.1137 21.9694C37.3119 22.7731 38.244 23.9151 38.7914 25.25H42.9375C43.6586 25.25 44.3501 25.5364 44.8599 26.0463C45.3698 26.5562 45.6562 27.2477 45.6562 27.9687ZM3.0625 10.75H10.8336C11.381 12.0849 12.3131 13.2269 13.5113 14.0306C14.7095 14.8343 16.1197 15.2634 17.5625 15.2634C19.0053 15.2634 20.4155 14.8343 21.6137 14.0306C22.8119 13.2269 23.744 12.0849 24.2914 10.75H42.9375C43.6586 10.75 44.3501 10.4636 44.8599 9.9537C45.3698 9.44383 45.6562 8.75231 45.6562 8.03125C45.6562 7.31019 45.3698 6.61867 44.8599 6.1088C44.3501 5.59894 43.6586 5.3125 42.9375 5.3125H24.2914C23.744 3.97757 22.8119 2.83563 21.6137 2.03192C20.4155 1.22822 19.0053 0.799072 17.5625 0.799072C16.1197 0.799072 14.7095 1.22822 13.5113 2.03192C12.3131 2.83563 11.381 3.97757 10.8336 5.3125H3.0625C2.34144 5.3125 1.64992 5.59894 1.14005 6.1088C0.630189 6.61867 0.34375 7.31019 0.34375 8.03125C0.34375 8.75231 0.630189 9.44383 1.14005 9.9537C1.64992 10.4636 2.34144 10.75 3.0625 10.75Z" fill="#7E6DE7"/>
</svg>
