<svg width="43" height="43" viewBox="0 0 43 43" fill="none" xmlns="http://www.w3.org/2000/svg">
<path d="M23.244 4.66221C22.7497 4.16809 22.0794 3.8905 21.3805 3.8905C20.6816 3.8905 20.0113 4.16809 19.5171 4.66221L1.99732 22.1793C1.87479 22.3019 1.7776 22.4473 1.71128 22.6074C1.64497 22.7675 1.61084 22.9391 1.61084 23.1124C1.61084 23.2857 1.64497 23.4573 1.71128 23.6173C1.7776 23.7774 1.87479 23.9229 1.99732 24.0454C2.24478 24.2929 2.58041 24.4319 2.93037 24.4319C3.10366 24.4319 3.27524 24.3978 3.43534 24.3315C3.59543 24.2652 3.74089 24.168 3.86342 24.0454L21.3805 6.52568L38.8977 24.0454C39.1451 24.2929 39.4807 24.4319 39.8307 24.4319C40.1807 24.4319 40.5163 24.2929 40.7638 24.0454C41.0112 23.798 41.1502 23.4623 41.1502 23.1124C41.1502 22.7624 41.0112 22.4268 40.7638 22.1793L34.5592 15.9774V7.29795C34.5592 6.94843 34.4204 6.61322 34.1732 6.36608C33.9261 6.11893 33.5909 5.98008 33.2414 5.98008H30.6056C30.2561 5.98008 29.9209 6.11893 29.6737 6.36608C29.4266 6.61322 29.2878 6.94843 29.2878 7.29795V10.706L23.244 4.66221Z" fill="#AEB9FF"/>
<path d="M21.3808 9.38806L37.1953 25.2025V36.291C37.1953 37.3396 36.7787 38.3452 36.0373 39.0867C35.2958 39.8281 34.2902 40.2446 33.2417 40.2446H9.52001C8.47145 40.2446 7.46584 39.8281 6.72439 39.0867C5.98295 38.3452 5.56641 37.3396 5.56641 36.291V25.2025L21.3808 9.38806Z" fill="#AEB9FF"/>
</svg>
