<svg width="66" height="62" viewBox="0 0 66 62" fill="none" xmlns="http://www.w3.org/2000/svg">
<g filter="url(#filter0_d_103_322)">
<path d="M35.2397 2.04305C34.5716 1.37519 33.6656 1 32.721 1C31.7764 1 30.8704 1.37519 30.2023 2.04305L6.52238 25.7194C6.35676 25.885 6.22539 26.0817 6.13576 26.298C6.04613 26.5144 6 26.7463 6 26.9806C6 27.2148 6.04613 27.4467 6.13576 27.6631C6.22539 27.8795 6.35676 28.0761 6.52238 28.2417C6.85685 28.5762 7.31049 28.7641 7.7835 28.7641C8.01771 28.7641 8.24963 28.7179 8.46602 28.6283C8.6824 28.5387 8.87901 28.4073 9.04462 28.2417L32.721 4.56174L56.3974 28.2417C56.7318 28.5762 57.1855 28.7641 57.6585 28.7641C58.1315 28.7641 58.5852 28.5762 58.9196 28.2417C59.2541 27.9072 59.442 27.4536 59.442 26.9806C59.442 26.5075 59.2541 26.0539 58.9196 25.7194L50.5335 17.3369V5.60555C50.5335 5.13314 50.3458 4.68007 50.0118 4.34602C49.6777 4.01197 49.2247 3.8243 48.7523 3.8243H45.1898C44.7173 3.8243 44.2643 4.01197 43.9302 4.34602C43.5962 4.68007 43.4085 5.13314 43.4085 5.60555V10.2119L35.2397 2.04305Z" fill="#7B6DE0"/>
<path d="M32.7209 8.43066L54.0959 29.8057V44.7931C54.0959 46.2104 53.5329 47.5696 52.5308 48.5717C51.5287 49.5738 50.1694 50.1368 48.7522 50.1368H16.6897C15.2724 50.1368 13.9132 49.5738 12.9111 48.5717C11.9089 47.5696 11.3459 46.2104 11.3459 44.7931V29.8057L32.7209 8.43066Z" fill="#7B6DE0"/>
</g>
<defs>
<filter id="filter0_d_103_322" x="0" y="0" width="65.4419" height="61.1368" filterUnits="userSpaceOnUse" color-interpolation-filters="sRGB">
<feFlood flood-opacity="0" result="BackgroundImageFix"/>
<feColorMatrix in="SourceAlpha" type="matrix" values="0 0 0 0 0 0 0 0 0 0 0 0 0 0 0 0 0 0 127 0" result="hardAlpha"/>
<feOffset dy="5"/>
<feGaussianBlur stdDeviation="3"/>
<feComposite in2="hardAlpha" operator="out"/>
<feColorMatrix type="matrix" values="0 0 0 0 0 0 0 0 0 0 0 0 0 0 0 0 0 0 0.13 0"/>
<feBlend mode="normal" in2="BackgroundImageFix" result="effect1_dropShadow_103_322"/>
<feBlend mode="normal" in="SourceGraphic" in2="effect1_dropShadow_103_322" result="shape"/>
</filter>
</defs>
</svg>
