<?xml version="1.0" encoding="UTF-8"?><svg id="Layer_2" xmlns="http://www.w3.org/2000/svg" viewBox="0 0 482.69 378.44"><defs><style>.cls-1{fill:#f3f4fc;}.cls-2{fill:#9e9ee5;}.cls-3{fill:#cbcbef;}.cls-4{fill:#7b6ddf;}</style></defs><g id="Ghostie"><g><rect class="cls-3" x="103.18" y="17.35" width="61.47" height="92.79" rx="12" ry="12"/><path class="cls-4" d="M270.88,378.44c-21.44,0-44.51-16.78-44.53-53.65V86.28c0-8.28,6.72-15,15-15s15,6.72,15,15v238.51c0,14.59,5.58,23.65,14.53,23.65h0c8.65,0,17.4-8.28,17.4-24.11,0-8.28,6.72-15,15-15s15,6.72,15,15c0,35.13-24.42,54.1-47.39,54.11h-.01Z"/><path class="cls-2" d="M151.91,252.78c20.31-25.37,49.9-41.36,82.85-41.36,37.16,0,70.41,14.36,90.53,45.55,20.12-31.19,52.64-45.55,89.8-45.55,25.45,0,48.89,9.54,67.6,25.56C421.45,94.95,251.9,0,240.71,0,227.53,0,70.16,86.29,0,238.25c18.95-16.79,42.94-26.83,69.06-26.83,32.95,0,62.54,15.99,82.85,41.36Z"/><path class="cls-3" d="M214.43,170.79c-9.92,0-18-8.08-18-18v-35.66c0-.27,.01-.54,.03-.81-.02-.48-.03-.92-.03-1.37,0-24.77,20.15-44.92,44.92-44.92s44.92,20.15,44.92,44.92c0,.46-.01,.92-.03,1.37,.02,.27,.03,.54,.03,.81v35.66c0,9.92-8.08,18-18,18h-53.84Z"/><path class="cls-1" d="M280.26,114.94c0-21.49-17.43-38.92-38.92-38.92s-38.92,17.42-38.92,38.92c0,.49,.02,.97,.04,1.46-.01,.24-.04,.48-.04,.72v35.66c0,6.6,5.4,12,12,12h53.84c6.6,0,12-5.4,12-12v-35.66c0-.24-.02-.48-.04-.72,.02-.49,.04-.97,.04-1.46Z"/><path class="cls-3" d="M241.35,169.01c-1.38,0-2.5-1.12-2.5-2.5V73.64c0-1.38,1.12-2.5,2.5-2.5s2.5,1.12,2.5,2.5v92.86c0,1.38-1.12,2.5-2.5,2.5Z"/><path class="cls-3" d="M283.79,127.97h-83.69c-1.38,0-2.5-1.12-2.5-2.5s1.12-2.5,2.5-2.5h83.69c1.38,0,2.5,1.12,2.5,2.5s-1.12,2.5-2.5,2.5Z"/></g></g></svg>