<?xml version="1.0" encoding="UTF-8"?><svg id="Layer_2" xmlns="http://www.w3.org/2000/svg" viewBox="0 0 482.69 466.67"><defs><style>.cls-1{fill:#f3f4fc;}.cls-2{fill:#9e9ee5;}.cls-3{fill:#cbcbef;}.cls-4{fill:#7b6ddf;}</style></defs><g id="Ghostie"><g><rect class="cls-3" x="103.18" y="17.35" width="61.47" height="92.79" rx="12" ry="12"/><path class="cls-4" d="M270.88,378.44c-21.44,0-44.51-16.78-44.53-53.65V86.28c0-8.28,6.72-15,15-15s15,6.72,15,15v238.51c0,14.59,5.58,23.65,14.53,23.65h0c8.65,0,17.4-8.28,17.4-24.11,0-8.28,6.72-15,15-15s15,6.72,15,15c0,35.13-24.42,54.1-47.39,54.11h-.01Z"/><path class="cls-2" d="M151.91,252.78c20.31-25.37,49.9-41.36,82.85-41.36,37.16,0,70.41,14.36,90.53,45.55,20.12-31.19,52.64-45.55,89.8-45.55,25.45,0,48.89,9.54,67.6,25.56C421.45,94.95,251.9,0,240.71,0,227.53,0,70.16,86.29,0,238.25c18.95-16.79,42.94-26.83,69.06-26.83,32.95,0,62.54,15.99,82.85,41.36Z"/><g><path class="cls-4" d="M56.39,465.87c-1.01,0-1.89-.32-2.64-.96-.75-.64-1.12-1.41-1.12-2.32v-49.44c0-.91,.32-1.68,.96-2.32,.64-.64,1.41-.96,2.32-.96h22.08c2.99,0,5.68,.68,8.08,2.04,2.4,1.36,4.3,3.24,5.72,5.64,1.41,2.4,2.12,5.12,2.12,8.16,0,2.24-.43,4.33-1.28,6.28-.85,1.95-2.03,3.64-3.52,5.08-1.49,1.44-3.2,2.51-5.12,3.2l-1.76-1.2c1.81,.37,3.44,1.11,4.88,2.2,1.44,1.09,2.61,2.48,3.52,4.16,.91,1.68,1.39,3.64,1.44,5.88,.11,1.97,.24,3.55,.4,4.72,.16,1.17,.4,2.09,.72,2.76,.32,.67,.77,1.19,1.36,1.56,.75,.48,1.24,1.12,1.48,1.92,.24,.8,.09,1.57-.44,2.32-.32,.53-.77,.89-1.36,1.08-.59,.19-1.17,.24-1.76,.16-.59-.08-1.12-.25-1.6-.52-.8-.48-1.61-1.19-2.44-2.12-.83-.93-1.49-2.28-2-4.04-.51-1.76-.76-4.16-.76-7.2,0-1.65-.28-3.05-.84-4.2-.56-1.15-1.28-2.05-2.16-2.72-.88-.67-1.88-1.15-3-1.44-1.12-.29-2.27-.44-3.44-.44h-17.84l.96-1.36v20.8c0,.91-.27,1.68-.8,2.32s-1.25,.96-2.16,.96Zm2-28.48h19.6c1.54-.11,3-.64,4.36-1.6s2.47-2.29,3.32-4c.85-1.71,1.28-3.68,1.28-5.92,0-2.77-.89-5.09-2.68-6.96-1.79-1.87-4.01-2.8-6.68-2.8h-18.88l.64-1.6v24.32l-.96-1.44Z"/><path class="cls-4" d="M140.07,424.11c.91,0,1.67,.31,2.28,.92,.61,.61,.92,1.37,.92,2.28v35.28c0,.91-.31,1.68-.92,2.32-.62,.64-1.38,.96-2.28,.96-.96,0-1.75-.32-2.36-.96s-.92-1.41-.92-2.32v-7.6l1.52-.16c0,1.23-.4,2.52-1.2,3.88-.8,1.36-1.89,2.64-3.28,3.84-1.39,1.2-3.01,2.19-4.88,2.96-1.87,.77-3.89,1.16-6.08,1.16-3.63,0-6.89-.95-9.8-2.84-2.91-1.89-5.19-4.47-6.84-7.72-1.65-3.25-2.48-6.96-2.48-11.12s.84-7.93,2.52-11.16c1.68-3.23,3.95-5.76,6.8-7.6,2.85-1.84,6.07-2.76,9.64-2.76,2.29,0,4.43,.37,6.4,1.12,1.97,.75,3.69,1.76,5.16,3.04,1.46,1.28,2.6,2.69,3.4,4.24,.8,1.55,1.2,3.09,1.2,4.64l-2.08-.48v-8.72c0-.91,.31-1.67,.92-2.28,.61-.61,1.4-.92,2.36-.92Zm-16.48,36.64c2.67,0,5.01-.69,7.04-2.08,2.03-1.39,3.63-3.27,4.8-5.64,1.17-2.37,1.76-5.05,1.76-8.04s-.59-5.57-1.76-7.92c-1.17-2.35-2.78-4.21-4.8-5.6-2.03-1.39-4.37-2.08-7.04-2.08s-4.95,.68-7,2.04c-2.05,1.36-3.67,3.21-4.84,5.56-1.17,2.35-1.76,5.01-1.76,8s.57,5.67,1.72,8.04c1.15,2.37,2.75,4.25,4.8,5.64,2.05,1.39,4.41,2.08,7.08,2.08Z"/><path class="cls-4" d="M157.99,418.51c-1.33,0-2.32-.27-2.96-.8-.64-.53-.96-1.36-.96-2.48v-1.12c0-1.12,.35-1.95,1.04-2.48,.69-.53,1.68-.8,2.96-.8s2.24,.27,2.88,.8c.64,.53,.96,1.36,.96,2.48v1.12c0,1.12-.33,1.95-1,2.48-.67,.53-1.64,.8-2.92,.8Zm3.28,44.08c0,.91-.31,1.68-.92,2.32-.62,.64-1.38,.96-2.28,.96-.96,0-1.75-.32-2.36-.96s-.92-1.41-.92-2.32v-35.44c0-.91,.31-1.68,.92-2.32s1.4-.96,2.36-.96c.91,0,1.67,.32,2.28,.96,.61,.64,.92,1.41,.92,2.32v35.44Z"/><path class="cls-4" d="M193.35,423.47c3.62,0,6.48,.75,8.56,2.24,2.08,1.49,3.56,3.49,4.44,6,.88,2.51,1.32,5.33,1.32,8.48v22.4c0,.91-.31,1.68-.92,2.32s-1.37,.96-2.28,.96c-.96,0-1.73-.32-2.32-.96-.59-.64-.88-1.41-.88-2.32v-22.24c0-2.03-.31-3.87-.92-5.52-.62-1.65-1.64-2.97-3.08-3.96-1.44-.99-3.36-1.48-5.76-1.48-2.24,0-4.29,.49-6.16,1.48-1.87,.99-3.36,2.31-4.48,3.96-1.12,1.65-1.68,3.49-1.68,5.52v22.24c0,.91-.31,1.68-.92,2.32-.62,.64-1.38,.96-2.28,.96s-1.67-.32-2.28-.96c-.61-.64-.92-1.41-.92-2.32v-34.8c0-.96,.31-1.75,.92-2.36,.61-.61,1.37-.92,2.28-.92,.96,0,1.73,.31,2.32,.92,.59,.61,.88,1.4,.88,2.36v5.6l-1.6,1.76c.27-1.39,.88-2.79,1.84-4.2,.96-1.41,2.16-2.68,3.6-3.8,1.44-1.12,3.04-2.01,4.8-2.68,1.76-.67,3.6-1,5.52-1Z"/><path class="cls-4" d="M260.87,413.55c.91,.48,1.44,1.2,1.6,2.16s-.08,1.87-.72,2.72c-.48,.64-1.09,1-1.84,1.08-.75,.08-1.49-.07-2.24-.44-1.76-1.07-3.65-1.91-5.68-2.52-2.03-.61-4.16-.92-6.4-.92-3.15,0-6.03,.53-8.64,1.6-2.62,1.07-4.88,2.6-6.8,4.6s-3.41,4.36-4.48,7.08-1.6,5.71-1.6,8.96c0,3.52,.56,6.67,1.68,9.44,1.12,2.77,2.65,5.13,4.6,7.08,1.95,1.95,4.21,3.43,6.8,4.44,2.59,1.01,5.4,1.52,8.44,1.52,2.19,0,4.29-.29,6.32-.88,2.03-.59,3.92-1.44,5.68-2.56,.75-.37,1.51-.51,2.28-.4,.77,.11,1.4,.48,1.88,1.12,.69,.85,.95,1.75,.76,2.68-.19,.93-.71,1.64-1.56,2.12-1.33,.8-2.86,1.52-4.56,2.16-1.71,.64-3.48,1.15-5.32,1.52-1.84,.37-3.67,.56-5.48,.56-3.84,0-7.47-.67-10.88-2-3.41-1.33-6.44-3.24-9.08-5.72-2.64-2.48-4.71-5.49-6.2-9.04-1.49-3.55-2.24-7.56-2.24-12.04,0-4.11,.72-7.91,2.16-11.4,1.44-3.49,3.44-6.52,6-9.08,2.56-2.56,5.56-4.55,9-5.96,3.44-1.41,7.19-2.12,11.24-2.12,2.77,0,5.47,.36,8.08,1.08,2.61,.72,5.01,1.77,7.2,3.16Z"/><path class="cls-4" d="M291.03,423.87c3.52,0,6.31,.76,8.36,2.28,2.05,1.52,3.52,3.55,4.4,6.08,.88,2.53,1.32,5.35,1.32,8.44v21.92c0,.91-.31,1.68-.92,2.32s-1.37,.96-2.28,.96c-.96,0-1.73-.32-2.32-.96-.59-.64-.88-1.41-.88-2.32v-21.92c0-1.97-.29-3.79-.88-5.44-.59-1.65-1.56-2.97-2.92-3.96-1.36-.99-3.21-1.48-5.56-1.48-2.19,0-4.19,.49-6,1.48-1.81,.99-3.25,2.31-4.32,3.96s-1.6,3.47-1.6,5.44v21.92c0,.91-.31,1.68-.92,2.32s-1.37,.96-2.28,.96-1.67-.32-2.28-.96-.92-1.41-.92-2.32v-52.64c0-.91,.31-1.68,.92-2.32,.61-.64,1.37-.96,2.28-.96,.96,0,1.73,.32,2.32,.96,.59,.64,.88,1.41,.88,2.32v23.84l-1.6,1.76c.27-1.39,.85-2.79,1.76-4.2,.91-1.41,2.05-2.68,3.44-3.8s2.93-2.01,4.64-2.68c1.71-.67,3.49-1,5.36-1Z"/><path class="cls-4" d="M336.07,466.67c-4.32,0-8.08-.91-11.28-2.72-3.2-1.81-5.68-4.31-7.44-7.48-1.76-3.17-2.64-6.84-2.64-11,0-4.64,.92-8.6,2.76-11.88,1.84-3.28,4.24-5.79,7.2-7.52,2.96-1.73,6.09-2.6,9.4-2.6,2.45,0,4.83,.45,7.12,1.36,2.29,.91,4.32,2.24,6.08,4s3.17,3.84,4.24,6.24c1.06,2.4,1.62,5.12,1.68,8.16,0,.85-.32,1.56-.96,2.12-.64,.56-1.39,.84-2.24,.84h-31.6l-1.44-5.52h30.72l-1.28,1.12v-1.76c-.16-2.19-.87-4.07-2.12-5.64-1.25-1.57-2.78-2.79-4.56-3.64-1.79-.85-3.67-1.28-5.64-1.28-1.6,0-3.19,.29-4.76,.88-1.57,.59-2.99,1.49-4.24,2.72-1.25,1.23-2.27,2.83-3.04,4.8-.77,1.97-1.16,4.35-1.16,7.12,0,3.09,.62,5.81,1.88,8.16,1.25,2.35,3,4.2,5.24,5.56,2.24,1.36,4.85,2.04,7.84,2.04,1.87,0,3.49-.24,4.88-.72,1.39-.48,2.57-1.08,3.56-1.8,.99-.72,1.83-1.45,2.52-2.2,.69-.48,1.39-.72,2.08-.72,.75,0,1.39,.27,1.92,.8s.8,1.17,.8,1.92c0,.91-.43,1.73-1.28,2.48-1.55,1.65-3.59,3.09-6.12,4.32-2.54,1.23-5.24,1.84-8.12,1.84Z"/><path class="cls-4" d="M381.11,423.47c2.77,0,5.25,.29,7.44,.88,2.19,.59,3.92,1.39,5.2,2.4,1.28,1.01,1.92,2.16,1.92,3.44,0,.75-.24,1.44-.72,2.08-.48,.64-1.15,.96-2,.96-.69,0-1.27-.15-1.72-.44-.45-.29-.88-.64-1.28-1.04-.4-.4-.95-.79-1.64-1.16-.64-.32-1.57-.6-2.8-.84s-2.45-.36-3.68-.36c-2.93,0-5.51,.69-7.72,2.08-2.21,1.39-3.96,3.25-5.24,5.6-1.28,2.35-1.92,5.01-1.92,8s.61,5.65,1.84,8c1.23,2.35,2.93,4.21,5.12,5.6,2.19,1.39,4.72,2.08,7.6,2.08,1.87,0,3.35-.16,4.44-.48,1.09-.32,2.04-.69,2.84-1.12,.91-.53,1.61-1.07,2.12-1.6,.51-.53,1.21-.8,2.12-.8s1.61,.29,2.12,.88c.51,.59,.76,1.31,.76,2.16,0,1.01-.67,2.05-2,3.12-1.33,1.07-3.15,1.96-5.44,2.68-2.29,.72-4.85,1.08-7.68,1.08-4.05,0-7.6-.95-10.64-2.84-3.04-1.89-5.4-4.48-7.08-7.76s-2.52-6.95-2.52-11,.87-7.71,2.6-10.96c1.73-3.25,4.15-5.84,7.24-7.76,3.09-1.92,6.67-2.88,10.72-2.88Z"/><path class="cls-4" d="M408.15,465.87c-.96,0-1.75-.32-2.36-.96-.62-.64-.92-1.41-.92-2.32v-52.64c0-.91,.3-1.68,.92-2.32,.61-.64,1.4-.96,2.36-.96,.91,0,1.67,.32,2.28,.96,.61,.64,.92,1.41,.92,2.32v52.64c0,.91-.31,1.68-.92,2.32s-1.37,.96-2.28,.96Zm26.56-41.6c.85,0,1.59,.33,2.2,1s.92,1.37,.92,2.12c0,.85-.43,1.65-1.28,2.4l-25.92,22.64-.24-7.52,22-19.68c.69-.64,1.46-.96,2.32-.96Zm.88,41.52c-.96,0-1.76-.35-2.4-1.04l-17.04-18.16,4.8-4.4,16.88,18.08c.64,.69,.96,1.49,.96,2.4,0,.96-.38,1.72-1.12,2.28-.75,.56-1.44,.84-2.08,.84Z"/></g><path class="cls-3" d="M214.43,170.79c-9.92,0-18-8.08-18-18v-35.66c0-.27,.01-.54,.03-.81-.02-.48-.03-.92-.03-1.37,0-24.77,20.15-44.92,44.92-44.92s44.92,20.15,44.92,44.92c0,.46-.01,.92-.03,1.37,.02,.27,.03,.54,.03,.81v35.66c0,9.92-8.08,18-18,18h-53.84Z"/><path class="cls-1" d="M280.26,114.94c0-21.49-17.43-38.92-38.92-38.92s-38.92,17.42-38.92,38.92c0,.49,.02,.97,.04,1.46-.01,.24-.04,.48-.04,.72v35.66c0,6.6,5.4,12,12,12h53.84c6.6,0,12-5.4,12-12v-35.66c0-.24-.02-.48-.04-.72,.02-.49,.04-.97,.04-1.46Z"/><path class="cls-3" d="M241.35,169.01c-1.38,0-2.5-1.12-2.5-2.5V73.64c0-1.38,1.12-2.5,2.5-2.5s2.5,1.12,2.5,2.5v92.86c0,1.38-1.12,2.5-2.5,2.5Z"/><path class="cls-3" d="M283.79,127.97h-83.69c-1.38,0-2.5-1.12-2.5-2.5s1.12-2.5,2.5-2.5h83.69c1.38,0,2.5,1.12,2.5,2.5s-1.12,2.5-2.5,2.5Z"/></g></g></svg>