<?xml version="1.0" encoding="UTF-8"?><svg id="Layer_2" xmlns="http://www.w3.org/2000/svg" viewBox="0 0 710.65 674.34"><defs><style>.cls-1{fill:#f3f4fc;}.cls-2{fill:#9e9ee5;}.cls-3{fill:#bbbbef;}.cls-4{fill:#cbcbef;}.cls-5{fill:#dcdcf4;}.cls-6{fill:#3625bb;}.cls-7{fill:#a2a2ea;}.cls-8{fill:#7b6de0;}</style></defs><g id="Ghostie"><g><circle class="cls-2" cx="331.16" cy="331.16" r="331.16"/><path class="cls-4" d="M477.59,170.01c-110.12,0-199.39,75.63-199.39,168.92v320.7h398.78V338.92c0-93.29-89.27-168.92-199.39-168.92Z"/><path class="cls-5" d="M452.12,170.01c-96.05,0-173.92,75.63-173.92,168.92v320.7h347.85V338.92c0-93.29-77.87-168.92-173.92-168.92Z"/><rect class="cls-6" x="241.98" y="646.79" width="468.67" height="27.56" rx="12" ry="12"/><g><path class="cls-2" d="M382.39,414.29c-2.24,0-4.24-.7-6-2.1-1.76-1.4-2.64-3.14-2.64-5.22v-69.36c0-2.08,.7-3.82,2.1-5.22,1.4-1.4,3.14-2.1,5.22-2.1h34.56c4.16,0,8.06,1.1,11.7,3.3,3.64,2.2,6.58,5.24,8.82,9.12,2.24,3.88,3.36,8.34,3.36,13.38,0,3.04-.62,6-1.86,8.88-1.24,2.88-2.92,5.48-5.04,7.8-2.12,2.32-4.5,4.12-7.14,5.4l.12-2.76c2.24,1.2,4.1,2.62,5.58,4.26,1.48,1.64,2.64,3.4,3.48,5.28,.84,1.88,1.34,3.9,1.5,6.06,.32,2,.54,3.76,.66,5.28,.12,1.52,.36,2.8,.72,3.84,.36,1.04,1.06,1.84,2.1,2.4,1.76,1.04,2.86,2.54,3.3,4.5,.44,1.96-.02,3.7-1.38,5.22-.88,1.04-2,1.7-3.36,1.98-1.36,.28-2.72,.28-4.08,0-1.36-.28-2.48-.66-3.36-1.14-1.36-.8-2.72-1.98-4.08-3.54-1.36-1.56-2.46-3.66-3.3-6.3-.84-2.64-1.26-6.04-1.26-10.2,0-1.36-.24-2.62-.72-3.78-.48-1.16-1.16-2.16-2.04-3-.88-.84-2-1.48-3.36-1.92-1.36-.44-2.96-.66-4.8-.66h-24.24l1.8-2.76v26.04c0,2.08-.56,3.82-1.68,5.22-1.12,1.4-2.68,2.1-4.68,2.1Zm4.68-42.96h27.96c1.44,0,2.84-.66,4.2-1.98,1.36-1.32,2.48-3.12,3.36-5.4,.88-2.28,1.32-4.78,1.32-7.5,0-3.52-.94-6.46-2.82-8.82-1.88-2.36-3.9-3.54-6.06-3.54h-27.72l1.44-3.84v33.96l-1.68-2.88Z"/><path class="cls-2" d="M471.19,406.97c0,2.08-.76,3.82-2.28,5.22-1.52,1.4-3.28,2.1-5.28,2.1-2.24,0-4.04-.7-5.4-2.1-1.36-1.4-2.04-3.14-2.04-5.22v-69.36c0-2.08,.72-3.82,2.16-5.22,1.44-1.4,3.28-2.1,5.52-2.1,1.92,0,3.62,.7,5.1,2.1,1.48,1.4,2.22,3.14,2.22,5.22v69.36Z"/><path class="cls-2" d="M523.87,330.29c4.16,0,8.06,1.2,11.7,3.6,3.64,2.4,6.58,5.64,8.82,9.72,2.24,4.08,3.36,8.64,3.36,13.68s-1.12,9.48-3.36,13.56c-2.24,4.08-5.18,7.34-8.82,9.78-3.64,2.44-7.54,3.66-11.7,3.66h-22.08l1.2-2.16v24.84c0,2.08-.64,3.82-1.92,5.22-1.28,1.4-2.96,2.1-5.04,2.1s-3.64-.7-4.92-2.1c-1.28-1.4-1.92-3.14-1.92-5.22v-69.36c0-2.08,.7-3.82,2.1-5.22,1.4-1.4,3.14-2.1,5.22-2.1h27.36Zm0,40.32c1.52,0,3-.64,4.44-1.92,1.44-1.28,2.64-2.94,3.6-4.98s1.44-4.18,1.44-6.42-.48-4.48-1.44-6.48c-.96-2-2.16-3.62-3.6-4.86-1.44-1.24-2.92-1.86-4.44-1.86h-22.32l1.44-2.16v30.6l-1.32-1.92h22.2Z"/></g><g id="Ghost"><circle class="cls-1" cx="206.68" cy="321.14" r="124.49"/><path class="cls-1" d="M97.88,329.49s-25.29,158.3,63,207.15,203.5,30.62,226.04,40.01c-78.9-44.15-70.62-118.94-70.62-149.01,0-34.77,14.86-98.15,14.86-98.15H97.88Z"/><path class="cls-1" d="M53.91,361.28c-3.66,8.63,3.09,19.74,15.08,24.84l37.68,16,13.26-31.24-37.68-16c-11.99-5.09-24.68-2.23-28.34,6.4Z"/><path class="cls-1" d="M363.97,361.5c-3.26-8.79-15.8-12.24-28.01-7.71l-38.38,14.23,11.8,31.82,38.38-14.23c12.21-4.53,19.47-15.32,16.22-24.11Z"/><circle class="cls-5" cx="133.29" cy="316.37" r="14.8"/><circle class="cls-5" cx="273.56" cy="319.44" r="14.8"/><circle class="cls-6" cx="138.7" cy="301.57" r="7.03"/><circle class="cls-6" cx="264.29" cy="307.02" r="7.03"/><g><path class="cls-8" d="M217.02,337.11c0-10.99-8.91-19.91-19.91-19.91s-19.91,8.91-19.91,19.91c0,5.08,1.91,7.21,5.04,8.02-.16-.65-.25-1.4-.25-2.28,0-7.92,6.77-14.34,15.11-14.34s15.11,6.42,15.11,14.34c0,.88-.09,1.63-.25,2.28,3.14-.82,5.04-2.94,5.04-8.02Z"/><path class="cls-7" d="M197.11,328.5c-8.35,0-15.11,6.42-15.11,14.34,0,.88,.09,1.63,.25,2.28,3.65,.95,8.95,.13,14.86,.13s11.22,.82,14.86-.13c.16-.65,.25-1.4,.25-2.28,0-7.92-6.77-14.34-15.11-14.34Z"/></g><path class="cls-3" d="M143.85,288.5c-4.43,2.75-9.75,.41-9.98,.31-1.26-.57-1.82-2.05-1.26-3.3,.56-1.26,2.04-1.82,3.3-1.26,.86,.37,3.5,1.11,5.3,0,2.52-1.56,2.39-4.12,2.37-4.41-.11-1.36,.9-2.58,2.26-2.7,1.36-.13,2.57,.85,2.71,2.21,.23,2.17-.5,6.55-4.71,9.16Z"/><path class="cls-3" d="M259.32,292.52c-3.93-3.43-3.27-9.2-3.24-9.44,.17-1.37,1.42-2.34,2.79-2.18,1.37,.17,2.34,1.42,2.17,2.79-.1,.93-.03,3.68,1.56,5.06,2.23,1.95,4.65,1.07,4.91,.96,1.27-.5,2.73,.1,3.25,1.36,.52,1.26-.05,2.71-1.31,3.24-2.01,.86-6.41,1.45-10.14-1.8Z"/></g></g></g></svg>