<?xml version="1.0" encoding="UTF-8"?><svg id="Layer_2" xmlns="http://www.w3.org/2000/svg" viewBox="0 0 753.98 639.94"><defs><style>.cls-1{fill:#f3f4fc;}.cls-2{fill:#f4f3fd;}.cls-3{fill:#fff;}.cls-4{fill:#9e9ee5;}.cls-5{fill:#cbcbef;}.cls-6{fill:#dcdcf4;}.cls-7{fill:#3625bb;}.cls-8{fill:#7b6de0;}.cls-9{fill:#7b6ddf;}</style></defs><g id="Layer_1-2"><g id="Vancouver_Special"><polygon class="cls-6" points="674.12 147.47 674.12 147.47 674.12 146.64 671.76 146.64 524.95 94.85 375.79 42.23 226.62 94.85 79.81 146.64 77.45 146.64 77.45 451.18 674.12 451.18 674.12 147.47 674.12 147.47"/><rect class="cls-9" x="60.73" y="434.37" width="630.28" height="30.81" rx="5" ry="5"/><path class="cls-5" d="M414.73,260.56v173.81h259.39v-177.19c-1.7-1.86-3.35-3.76-4.98-5.66l-121.41-94.77-132.99,103.81Z"/><rect class="cls-4" x="77.45" y="465.19" width="596.67" height="168.35"/><rect class="cls-3" x="116.79" y="251.23" width="259.08" height="183.14" rx="5" ry="5"/><rect class="cls-1" x="131.97" y="263.04" width="65.67" height="159.33" rx="5" ry="5"/><rect class="cls-1" x="213.63" y="263.04" width="65.67" height="159.33" rx="5" ry="5"/><rect class="cls-1" x="295.28" y="263.04" width="65.67" height="159.33" rx="5" ry="5"/><rect class="cls-3" x="459.2" y="252.23" width="177.07" height="93.57" rx="5" ry="5"/><rect class="cls-2" x="509.17" y="263.24" width="77.11" height="72.58" rx="5" ry="5"/><rect class="cls-2" x="470.61" y="263.24" width="30.05" height="72.58" rx="5" ry="5"/><rect class="cls-2" x="594.38" y="263.24" width="30.05" height="72.58" rx="5" ry="5"/><rect class="cls-5" x="466.28" y="496.71" width="162.43" height="136.83" rx="5" ry="5"/><rect class="cls-6" x="470.61" y="500.29" width="73.81" height="133.25" rx="5" ry="5"/><rect class="cls-6" x="551.46" y="500.29" width="73.81" height="133.25" rx="5" ry="5"/><rect class="cls-2" x="478.96" y="514.92" width="25.56" height="74.39" rx="5" ry="5"/><rect class="cls-2" x="511.17" y="514.92" width="25.56" height="74.39" rx="5" ry="5"/><rect class="cls-2" x="559.48" y="515.92" width="25.56" height="74.39" rx="5" ry="5"/><rect class="cls-2" x="591.7" y="515.92" width="25.56" height="74.39" rx="5" ry="5"/><rect class="cls-7" x="60.73" y="632.11" width="630.28" height="7.83" rx="3.92" ry="3.92"/><g><rect class="cls-3" x="127.1" y="485.51" width="75.46" height="126.87" rx="5" ry="5"/><rect class="cls-1" x="131.97" y="492.42" width="65.67" height="73.61" rx="5" ry="5"/><rect class="cls-1" x="131.97" y="572.17" width="65.67" height="34.28" rx="5" ry="5"/></g><g><rect class="cls-3" x="208.6" y="485.51" width="75.46" height="126.87" rx="5" ry="5"/><rect class="cls-1" x="213.47" y="492.42" width="65.67" height="73.61" rx="5" ry="5"/><rect class="cls-1" x="213.47" y="572.17" width="65.67" height="34.28" rx="5" ry="5"/></g><g><rect class="cls-3" x="290.38" y="485.51" width="75.46" height="126.87" rx="5" ry="5"/><rect class="cls-1" x="295.26" y="492.42" width="65.67" height="73.61" rx="5" ry="5"/><rect class="cls-1" x="295.26" y="572.17" width="65.67" height="34.28" rx="5" ry="5"/></g><g><rect class="cls-9" x="684" y="345.81" width="5.01" height="88.57"/><rect class="cls-9" x="662.65" y="345.81" width="5.01" height="88.57"/><rect class="cls-9" x="641.31" y="345.81" width="5.01" height="88.57"/><rect class="cls-9" x="619.96" y="345.81" width="5.01" height="88.57"/><rect class="cls-9" x="598.62" y="345.81" width="5.01" height="88.57"/><rect class="cls-9" x="577.27" y="345.81" width="5.01" height="88.57"/><rect class="cls-9" x="555.93" y="345.81" width="5.01" height="88.57"/><rect class="cls-9" x="534.58" y="345.81" width="5.01" height="88.57"/><rect class="cls-9" x="513.23" y="345.81" width="5.01" height="88.57"/><rect class="cls-9" x="491.89" y="345.81" width="5.01" height="88.57"/><rect class="cls-9" x="470.54" y="345.81" width="5.01" height="88.57"/><rect class="cls-9" x="449.2" y="345.81" width="5.01" height="88.57"/><rect class="cls-9" x="427.85" y="345.81" width="5.01" height="88.57"/><rect class="cls-9" x="406.51" y="345.81" width="5.01" height="88.57"/><rect class="cls-9" x="385.16" y="345.81" width="5.01" height="88.57"/><rect class="cls-9" x="363.82" y="345.81" width="5.01" height="88.57"/><rect class="cls-9" x="342.47" y="345.81" width="5.01" height="88.57"/><rect class="cls-9" x="321.12" y="345.81" width="5.01" height="88.57"/><rect class="cls-9" x="299.78" y="345.81" width="5.01" height="88.57"/><rect class="cls-9" x="278.43" y="345.81" width="5.01" height="88.57"/><rect class="cls-9" x="257.09" y="345.81" width="5.01" height="88.57"/><rect class="cls-9" x="235.74" y="345.81" width="5.01" height="88.57"/><rect class="cls-9" x="214.4" y="345.81" width="5.01" height="88.57"/><rect class="cls-9" x="193.05" y="345.81" width="5.01" height="88.57"/><rect class="cls-9" x="171.71" y="345.81" width="5.01" height="88.57"/><rect class="cls-9" x="150.36" y="345.81" width="5.01" height="88.57"/><rect class="cls-9" x="129.01" y="345.81" width="5.01" height="88.57"/><rect class="cls-9" x="107.67" y="345.81" width="5.01" height="88.57"/><rect class="cls-9" x="86.32" y="345.81" width="5.01" height="88.57"/><rect class="cls-9" x="64.98" y="345.81" width="5.01" height="88.57"/></g><path class="cls-9" d="M71.85,338.82H682.13c3.8,0,6.88,3.08,6.88,6.88H64.98c0-3.8,3.08-6.88,6.88-6.88Z"/><path class="cls-8" d="M746.95,165.58L384.59,1.07c-3.78-1.72-8-1.29-11.3,.76L7.03,168.11c-6.01,2.73-8.69,9.88-5.97,15.89l6.67,14.69c2.73,6.01,9.88,8.69,15.89,5.97L379.77,42.96l350.59,159.17c6.01,2.73,13.16,.04,15.89-5.97l6.67-14.69c2.73-6.01,.04-13.16-5.97-15.89Z"/><path class="cls-8" d="M681.4,243.51l-133.97-105.65c-1.4-1.1-2.96-.83-4.18,.49l-135.41,106.79c-4.89,3.24-3.21,6.34-2.21,10.2l2.47,9.44c1.01,3.86,3.65,5.58,5.87,3.83l131.67-103.84,129.62,102.22c2.22,1.75,4.87,.03,5.87-3.83l2.47-9.44c1.01-3.86,3.46-6.55-2.21-10.2Z"/></g></g></svg>